<?xml version="1.0" encoding="UTF-8" standalone="no"?><!DOCTYPE svg PUBLIC "-//W3C//DTD SVG 1.1//EN" "http://www.w3.org/Graphics/SVG/1.1/DTD/svg11.dtd"><svg width="100%" height="100%" viewBox="0 0 11 8" version="1.1" xmlns="http://www.w3.org/2000/svg" xmlns:xlink="http://www.w3.org/1999/xlink" xml:space="preserve" xmlns:serif="http://www.serif.com/" style="fill-rule:evenodd;clip-rule:evenodd;stroke-linejoin:round;stroke-miterlimit:1.41421;"><g><clipPath id="_clip1"><rect id="Background" x="0.114" y="2.187" width="2.863" height="2.65"/></clipPath><g clip-path="url(#_clip1)"></g><g transform="matrix(0.184282,0,0,0.184282,-22.4188,-31.2758)"><path d="M140.292,191.809l0,-8.004l1.213,0l2.622,3.457l2.64,-3.457l1.213,0l0,8.004l-1.12,0l0,-6.311l-2.733,3.586l-2.716,-3.586l0,6.311l-1.119,0Z" style="fill:#fff;fill-rule:nonzero;"/><path d="M149.374,185.821l1.178,0l1.611,4.484l1.582,-4.484l1.178,0l-2.461,6.627c-0.426,1.148 -1.045,1.722 -1.857,1.722c0,0 -0.002,0 -0.006,0c-0.266,0 -0.545,-0.031 -0.838,-0.094l0,-0.99c0.238,0.063 0.463,0.096 0.674,0.1c0.496,0 0.896,-0.461 1.201,-1.382l-2.262,-5.983Z" style="fill:#fff;fill-rule:nonzero;"/><path d="M159.396,183.374c-1.934,0 -2.966,0.359 -3.218,2.218c-0.144,1.129 0.168,1.921 1.416,2.437l1.574,0.636c0.517,0.192 0.673,0.312 0.601,0.876c-0.108,0.721 -0.433,0.853 -1.526,0.853c-0.361,0 -1.057,-0.024 -2.581,-0.06l-0.192,1.306c1.188,0.264 2.268,0.324 2.845,0.324c2.197,0 3.024,-0.455 3.263,-2.315c0.156,-1.236 -0.119,-1.944 -1.426,-2.46l-1.489,-0.576c-0.601,-0.228 -0.745,-0.349 -0.661,-0.913c0.12,-0.78 0.469,-0.804 1.346,-0.792c0.888,0 1.847,0.012 2.566,0.036l0.18,-1.235c-0.863,-0.251 -1.846,-0.335 -2.698,-0.335Z" style="fill:#fff;fill-rule:nonzero;"/><path d="M166.332,183.374c-1.934,0 -2.966,0.359 -3.218,2.218c-0.144,1.129 0.168,1.921 1.416,2.437l1.574,0.636c0.517,0.192 0.673,0.312 0.601,0.876c-0.108,0.721 -0.433,0.853 -1.526,0.853c-0.361,0 -1.057,-0.024 -2.581,-0.06l-0.192,1.306c1.188,0.264 2.268,0.324 2.845,0.324c2.197,0 3.024,-0.455 3.263,-2.315c0.156,-1.236 -0.119,-1.944 -1.426,-2.46l-1.489,-0.576c-0.601,-0.228 -0.745,-0.349 -0.661,-0.913c0.12,-0.78 0.469,-0.804 1.346,-0.792c0.888,0 1.847,0.012 2.566,0.036l0.18,-1.235c-0.863,-0.251 -1.846,-0.335 -2.698,-0.335Z" style="fill:#fff;fill-rule:nonzero;"/><path d="M178.999,183.53l-1.763,0.012c-0.408,0 -0.647,0.155 -0.779,0.551l-1.559,4.224c-0.132,0.36 -0.252,0.708 -0.384,1.141l-0.168,0c0,-0.409 -0.012,-0.781 -0.06,-1.177l-0.468,-4.128c-0.036,-0.396 -0.252,-0.623 -0.647,-0.623l-1.715,0c-0.444,0 -0.648,0.203 -0.72,0.647l-1.379,7.631l1.727,0l1.187,-6.852l0.204,0l0.588,5.101c0.036,0.383 0.276,0.611 0.683,0.611l1.2,0c0.407,0 0.647,-0.156 0.779,-0.551l1.955,-5.161l0.204,0l-0.72,6.852l1.727,0l0.744,-7.571c0.048,-0.432 -0.192,-0.707 -0.636,-0.707Z" style="fill:#fff;fill-rule:nonzero;"/></g></g></svg>