<?xml version="1.0" encoding="UTF-8" standalone="no"?><!DOCTYPE svg PUBLIC "-//W3C//DTD SVG 1.1//EN" "http://www.w3.org/Graphics/SVG/1.1/DTD/svg11.dtd"><svg width="100%" height="100%" viewBox="0 0 294 248" version="1.1" xmlns="http://www.w3.org/2000/svg" xmlns:xlink="http://www.w3.org/1999/xlink" xml:space="preserve" xmlns:serif="http://www.serif.com/" style="fill-rule:evenodd;clip-rule:evenodd;stroke-linejoin:round;stroke-miterlimit:1.41421;"><path d="M249.892,223.151l-0.474,-1.849l5.369,-1.376l0.474,1.849l-5.369,1.376Z" style="fill:#5593ce;fill-rule:nonzero;"/><path d="M247.152,225.823l-0.473,-1.849l5.369,-1.376l0.475,1.849l-5.371,1.376Z" style="fill:#5593ce;fill-rule:nonzero;"/><path d="M244.413,228.495l-0.474,-1.849l5.37,-1.376l0.474,1.849l-5.37,1.376Z" style="fill:#5593ce;fill-rule:nonzero;"/><path d="M241.675,231.166l-0.475,-1.848l5.37,-1.376l0.474,1.848l-5.369,1.376Z" style="fill:#5593ce;fill-rule:nonzero;"/><path d="M65.528,111.638c-3.403,1.996 -8.942,2.035 -12.372,0.087c-3.43,-1.949 -3.453,-5.146 -0.05,-7.144c3.402,-1.996 8.942,-2.035 12.372,-0.085c3.43,1.948 3.453,5.146 0.05,7.142Zm70.917,-56.575l-50.395,29.568c-12.777,-3.921 -29.056,-2.709 -39.799,3.594c-13.069,7.668 -12.983,19.953 0.193,27.437c2.958,1.68 6.325,2.976 9.914,3.888c2.537,0.645 5.184,1.098 7.878,1.36c10.482,1.02 21.668,-0.849 29.732,-5.581c9.766,-5.73 12.183,-14.038 7.284,-20.995l6.954,-4.08l-0.197,-4.414l7.318,-0.051l-0.184,-4.134l7.318,-0.051l-0.185,-4.135l7.319,-0.051l-0.185,-4.134l7.319,-0.051l-0.185,-4.135l7.813,-0.055l2.384,-1.398l2.631,-10.855l-12.927,-1.727Z" style="fill:#c4d9ea;fill-rule:nonzero;"/><path d="M164.015,242.1l-67.967,-39.078c-4.576,-2.642 -4.002,-7.257 1.282,-10.308l65.965,-38.085c5.284,-3.05 13.277,-3.382 17.853,-0.74l67.966,39.078c4.575,2.643 4.002,7.257 -1.282,10.308l-65.965,38.085c-5.284,3.051 -13.277,3.383 -17.852,0.74Z" style="fill:#c4d9ea;fill-rule:nonzero;"/><path d="M243.695,153.5l-11.75,-6.784l43.324,-25.012c2.046,-1.182 2.046,-3.104 0,-4.286l-44.259,-25.552c-2.046,-1.182 -5.375,-1.182 -7.422,0l-43.323,25.012l-11.751,-6.783l43.324,-25.014c8.524,-4.921 22.396,-4.921 30.922,0.001l44.259,25.553c8.525,4.922 8.525,12.931 0.001,17.853l-43.325,25.012Z" style="fill:#5593ce;fill-rule:nonzero;"/><path d="M262.656,156.488c0,-6.283 -3.819,-13.579 -8.532,-16.3l-78.493,-45.318c-2.11,-1.218 -4.037,-1.305 -5.526,-0.473l-0.005,-0.003l-93.722,54.462l90.633,68.294l92.332,-53.591c0.286,-0.13 0.562,-0.28 0.816,-0.474l0.002,0l-0.001,0c1.542,-1.168 2.496,-3.459 2.496,-6.597Z" style="fill:#d4ebfa;fill-rule:nonzero;"/><path d="M167.011,217.15l92.332,-53.591c0.286,-0.13 0.562,-0.28 0.816,-0.474l0.002,0l-0.001,-0.001c1.542,-1.167 2.496,-3.458 2.496,-6.596c0,-2.999 -0.877,-6.225 -2.3,-9.077l-105.252,60.767l11.907,8.972Z" style="fill:#1f3e79;fill-rule:nonzero;"/><path d="M161.107,216.908l-78.494,-45.319c-4.712,-2.72 -8.53,-10.017 -8.53,-16.3c0,-6.281 3.818,-9.168 8.53,-6.449l78.494,45.32c4.712,2.719 8.532,10.017 8.532,16.298c0,6.283 -3.82,9.17 -8.532,6.45Z" style="fill:#3f63ae;fill-rule:nonzero;"/><path d="M149.351,201.624l-9.437,-5.444c-0.939,-0.542 -1.701,-1.997 -1.701,-3.249c0,-1.252 0.762,-1.827 1.701,-1.285l9.437,5.443c0.939,0.543 1.7,1.997 1.7,3.249c0,1.252 -0.761,1.828 -1.7,1.286Z" style="fill:#fff;fill-rule:nonzero;"/><path d="M78.488,42.037l16.128,9.162l16.456,-9.656l-0.044,-4.2l-0.14,0.082l-0.013,-0.296l7.318,-0.051l-0.044,-4.135l7.177,-0.05l-0.043,-4.136l7.177,-0.05l-0.043,-4.135l7.177,-0.05l-0.043,-4.136l7.672,-0.054l2.383,-1.398l2.632,-10.855l-0.044,-4.2l-1.269,4.024l-11.614,-1.551l-60.823,35.685Z" style="fill:#386dab;fill-rule:nonzero;"/><path d="M94.572,46.998l16.456,-9.655l-0.197,-4.414l7.318,-0.051l-0.184,-4.134l7.318,-0.051l-0.184,-4.135l7.318,-0.051l-0.186,-4.135l7.319,-0.05l-0.185,-4.135l7.815,-0.054l2.384,-1.399l2.63,-10.855l-12.927,-1.727l-60.822,35.685l16.127,9.161Z" style="fill:#d4ebfa;fill-rule:nonzero;"/><path d="M105.53,40.569c-1.656,-2.353 -4.144,-4.552 -7.474,-6.444c-2.346,-1.333 -4.957,-2.412 -7.725,-3.261l-11.886,6.973l16.127,9.161l10.958,-6.429Z" style="fill:#386dab;fill-rule:nonzero;"/><path d="M151.753,5.701l0.441,-1.822l-2.169,-0.289l-51.389,30.151l2.706,1.537l50.411,-29.577Z" style="fill:#5593ce;fill-rule:nonzero;"/><path d="M39.51,55.287l-0.178,-5.971l1.911,4.032l-1.733,1.939Z" style="fill:#d3d1d0;fill-rule:nonzero;"/><path d="M68.478,57.551c3.43,1.948 3.453,5.147 0.05,7.143c-3.402,1.997 -8.942,2.035 -12.372,0.087c-3.43,-1.95 -3.453,-5.147 -0.05,-7.144c3.403,-1.996 8.942,-2.034 12.372,-0.086Zm-19.034,11.167c13.177,7.486 34.454,7.336 47.524,-0.332c6.553,-3.845 9.797,-8.849 9.744,-13.828l0.001,0.003l-0.183,-6.325l-1.074,1.196c-1.517,-3.118 -4.405,-6.055 -8.682,-8.483c-13.175,-7.485 -34.453,-7.336 -47.522,0.332c-13.07,7.669 -12.984,19.953 0.192,27.437Z" style="fill:#386dab;fill-rule:nonzero;"/><path d="M68.3,51.583c3.431,1.95 3.453,5.147 0.05,7.144c-3.403,1.996 -8.942,2.035 -12.372,0.086c-3.43,-1.948 -3.453,-5.147 -0.05,-7.143c3.402,-1.996 8.941,-2.035 12.372,-0.087Zm-19.033,11.168c13.175,7.485 34.453,7.336 47.522,-0.333c13.07,-7.668 12.984,-19.952 -0.192,-27.437c-13.176,-7.485 -34.453,-7.336 -47.524,0.333c-13.069,7.668 -12.983,19.952 0.194,27.437Z" style="fill:#f4f5f6;fill-rule:nonzero;"/><path d="M64.543,66.02c-2.898,0.453 -6.105,0.057 -8.387,-1.239c-2.46,-1.398 -3.157,-3.436 -2.106,-5.215l-5.969,-4.733c0,0 -3.12,-3.52 -6.209,-7.01c-4.806,7.025 -2.276,15.3 7.572,20.895c4.345,2.469 9.214,3.87 14.736,4.683l0.363,-7.381Z" style="fill:#5593ce;fill-rule:nonzero;"/><path d="M68.3,51.583c3.431,1.95 3.453,5.147 0.05,7.144c-3.403,1.996 -8.942,2.035 -12.372,0.086c-3.43,-1.948 -3.453,-5.147 -0.05,-7.143c3.402,-1.996 8.941,-2.035 12.372,-0.087Zm-19.033,11.168c2.958,1.68 6.324,2.976 9.914,3.888c2.536,0.645 5.183,1.098 7.878,1.359c10.481,1.021 21.668,-0.848 29.73,-5.58c13.07,-7.668 12.984,-19.952 -0.192,-27.437c-13.176,-7.485 -34.453,-7.336 -47.524,0.333c-13.069,7.668 -12.983,19.952 0.194,27.437Z" style="fill:#d4ebfa;fill-rule:nonzero;"/><path d="M43.041,49.156c0.642,-3.825 3.477,-7.56 8.524,-10.522c11.628,-6.823 30.559,-6.955 42.282,-0.296c5.826,3.31 8.769,7.674 8.836,12.064c0.836,-4.986 -2.062,-10.12 -8.697,-13.889c-11.722,-6.66 -30.653,-6.527 -42.281,0.295c-5.849,3.433 -8.731,7.903 -8.664,12.348Z" style="fill:#386dab;fill-rule:nonzero;"/><path d="M51.419,52.88c-2.372,0 -5.03,0.824 -7.803,2.45c-9.864,5.788 -17.824,19.8 -17.742,31.237c0.036,5.329 1.809,9.258 4.992,11.064c3.182,1.806 7.464,1.32 12.06,-1.376c9.865,-5.787 17.824,-19.8 17.744,-31.236c-0.022,-3.138 -0.663,-5.871 -1.856,-7.903c-0.805,-1.373 -1.862,-2.437 -3.138,-3.163c-1.262,-0.717 -2.697,-1.073 -4.257,-1.073Zm-16.305,50.583c-2.367,0 -4.592,-0.564 -6.593,-1.701c-4.722,-2.68 -7.35,-8.064 -7.397,-15.163c-0.093,-12.947 8.919,-28.812 20.088,-35.366c6.119,-3.591 12.089,-4.093 16.811,-1.41c2.011,1.143 3.656,2.788 4.888,4.888c1.638,2.791 2.482,6.248 2.509,10.276c0.092,12.947 -8.921,28.813 -20.09,35.366c-3.525,2.067 -7.001,3.11 -10.216,3.11Z" style="fill:#386dab;fill-rule:nonzero;"/><path d="M57.622,63.389l9.381,2.299l1.347,-6.961c-3.403,1.996 -8.942,2.035 -12.372,0.086l1.644,4.576Z" style="fill:#d4ebfa;fill-rule:nonzero;"/><path d="M49.267,62.751c2.958,1.68 6.324,2.976 9.914,3.888c2.536,0.645 5.183,1.098 7.878,1.359c10.481,1.021 21.668,-0.848 29.73,-5.58l-38.202,-0.857l-9.32,1.19Z" style="fill:#d4ebfa;fill-rule:nonzero;"/><path d="M63.382,67.575c0,0 -4.061,-0.661 -8.297,-2.139l0,5.861c2.019,0.705 5.346,1.725 8.195,2.102c8.747,1.155 0.102,-5.824 0.102,-5.824Z" style="fill:#386dab;fill-rule:nonzero;"/><path d="M57.29,66.143c-1.746,-0.515 -3.648,-1.172 -5.404,-1.994c-5.11,-2.393 1.354,6.471 1.354,6.471c0,0 1.741,0.693 4.05,1.401l0,-5.878Z" style="fill:#5593ce;fill-rule:nonzero;"/><path d="M153.13,169.123l-16.715,10.78l-8.137,-1.321l19.875,-9.608l4.977,0.149Z" style="fill:#5593ce;fill-rule:nonzero;"/><path d="M132.921,223.551c0,0 -4.815,-2.429 -7.772,1.188c-2.956,3.615 -7.183,12.149 -7.314,17.917c-0.131,5.766 4.564,5.378 7.354,4.012c2.792,-1.365 10.944,-13.19 11.438,-15.507c0.493,-2.318 -0.582,-5.451 -1.367,-6.064c-0.784,-0.613 -2.339,-1.546 -2.339,-1.546Z" style="fill:#1f3e79;fill-rule:nonzero;"/><path d="M133.972,222.391l0.222,4.988c0.048,1.061 -0.485,2.071 -1.409,2.595c-0.841,0.477 -2.062,0.843 -3.714,0.577c-3.627,-0.583 -3.951,-1.619 -4.21,-6.606c-0.258,-4.987 9.111,-1.554 9.111,-1.554Z" style="fill:#5593ce;fill-rule:nonzero;"/><path d="M115.297,213.959c0,0 -4.815,-2.427 -7.772,1.188c-2.956,3.615 -7.183,12.15 -7.314,17.918c-0.131,5.766 4.564,5.377 7.354,4.013c2.791,-1.366 10.944,-13.191 11.437,-15.508c0.494,-2.318 -0.581,-5.45 -1.366,-6.064c-0.784,-0.613 -2.339,-1.547 -2.339,-1.547Z" style="fill:#1f3e79;fill-rule:nonzero;"/><path d="M116.348,212.799l0.222,4.988c0.048,1.061 -0.485,2.072 -1.409,2.596c-0.841,0.477 -2.062,0.843 -3.714,0.577c-3.627,-0.583 -3.951,-1.619 -4.21,-6.606c-0.258,-4.987 9.111,-1.555 9.111,-1.555Z" style="fill:#5593ce;fill-rule:nonzero;"/><path d="M159.309,121.221c-1.425,-23.186 -25.11,3.411 -25.11,3.411l-16.211,15.889l-14.597,16.036c-2.851,3.131 -4.177,7.36 -3.625,11.559l5.904,44.963c0.292,2.221 2.192,3.859 4.432,3.841c0.632,-0.005 1.357,-0.062 2.187,-0.191c5.268,-0.82 4.879,-5.829 4.879,-5.829l-1.079,-42.055l30.655,-18.479c0,0 13.989,-5.959 12.565,-29.145Z" style="fill:#d4ebfa;fill-rule:nonzero;"/><path d="M127.803,160.897l-4.363,-1.602c-0.101,0 -7.415,7.075 -7.351,9.55l3.281,1.054l8.241,-7.999l0.192,-1.003Z" style="fill:#5593ce;fill-rule:nonzero;"/><path d="M153.13,169.123c0,0 18.218,-10.402 20.398,-14.763c0.855,-1.708 2.182,-3.492 -3.134,-6.074l-24.296,17.319l1.053,5.963l5.979,-2.445Z" style="fill:#5593ce;fill-rule:nonzero;"/><path d="M176.934,130.168c-1.52,-23.179 -25.111,3.411 -25.111,3.411l-16.211,15.89l-14.597,16.035c-2.851,3.132 -4.177,7.361 -3.625,11.561l5.905,44.963c0.291,2.22 2.191,3.858 4.431,3.841c0.632,-0.006 1.357,-0.063 2.187,-0.193c5.268,-0.82 4.879,-5.829 4.879,-5.829l-1.079,-42.054l30.655,-18.48c0,0 13.954,-7.952 12.566,-29.145Z" style="fill:#d4ebfa;fill-rule:nonzero;"/><path d="M162.921,55.626c17.957,7.446 17.597,18.06 17.597,18.06c0,0 -3.518,38.914 -2.317,64.902c0.502,10.865 -57.722,11.694 -49.039,-17.291c10.237,-34.175 6.401,-61.842 11.193,-66.014c4.793,-4.173 17.921,-1.582 22.566,0.343Z" style="fill:#3f63ae;fill-rule:nonzero;"/><path d="M168.698,65.038c-0.939,3.646 -5.716,5.568 -10.669,4.291c-4.954,-1.275 -8.208,-5.265 -7.268,-8.911c0.939,-3.646 5.716,-5.567 10.669,-4.292c4.953,1.277 8.208,5.267 7.268,8.912Z" style="fill:#fbc1b0;fill-rule:nonzero;"/><path d="M158.357,56.588c-3.334,0 -6.123,1.552 -6.765,4.044c-0.384,1.492 0.062,3.122 1.259,4.588c1.257,1.542 3.172,2.706 5.392,3.278c4.487,1.152 8.804,-0.492 9.624,-3.673c0.384,-1.493 -0.062,-3.122 -1.259,-4.588c-1.257,-1.543 -3.172,-2.707 -5.392,-3.28c-0.973,-0.25 -1.937,-0.369 -2.859,-0.369Zm2.704,13.991c-1.053,0 -2.146,-0.135 -3.246,-0.418c-2.572,-0.663 -4.807,-2.032 -6.295,-3.856c-1.55,-1.899 -2.115,-4.066 -1.59,-6.101c1.054,-4.099 6.311,-6.303 11.714,-4.909c2.572,0.662 4.807,2.033 6.295,3.857c1.55,1.9 2.115,4.066 1.59,6.1c-0.84,3.265 -4.346,5.327 -8.468,5.327Z" style="fill:#fff;fill-rule:nonzero;"/><path d="M155.722,54.817c0,0 0.154,0.72 -0.157,6.41c-0.097,1.789 6.166,3.46 7.786,1.841c1.619,-1.619 0.971,-3.303 1.36,-9.391c0.389,-6.088 -8.989,1.14 -8.989,1.14Z" style="fill:#fbc1b0;fill-rule:nonzero;"/><path d="M164.711,53.677c0,0 -1.543,5.645 -9.147,7.81l0.116,-5.13l9.031,-2.68Z" style="fill:#ea9c92;fill-rule:nonzero;"/><path d="M169.527,39.335c1.912,7.391 -2.531,14.931 -9.921,16.842c-7.391,1.91 -14.931,-2.532 -16.842,-9.923c-1.911,-7.39 2.531,-14.93 9.922,-16.842c7.39,-1.91 14.931,2.533 16.841,9.923Z" style="fill:#fbc1b0;fill-rule:nonzero;"/><path d="M159.32,43.302c0,0 -7.61,3.26 -12.88,3.297c-5.269,0.038 -4.107,-4.375 -4.107,-4.375l15.642,-2.261l1.345,3.339Z" style="fill:#ea9c92;fill-rule:nonzero;"/><path d="M144.87,44.161c0,0 6.629,-2.814 12.444,-1.641c1.368,0.276 2.635,1.008 3.515,2.089c0.288,0.353 0.652,0.676 1.064,0.769c1.031,0.234 2.719,-4.045 4.724,-4.142c2.004,-0.098 3.342,1.321 1.698,3.953c-1.643,2.631 -1.087,5.576 -0.332,5.998c0.757,0.422 8.778,-5.721 1.703,-19.737c-7.076,-14.016 -25.048,-6.467 -27.844,-3.626c0,0 -2.944,2.565 -5.339,0.282c0,0 -2.685,20.108 8.367,16.055Z" style="fill:#15a7d0;fill-rule:nonzero;"/><path d="M170.444,102.117l0,10.514c0,1.205 -0.506,2.354 -1.397,3.166l-21.601,19.694l2.454,3.753l28.527,-20.689c1.331,-0.966 2.189,-2.451 2.361,-4.087l1.929,-18.338l-12.273,5.987Z" style="fill:#fbc1b0;fill-rule:nonzero;"/><path d="M178.997,68.428c0,0 6.554,9.856 8.995,35.797c0,0 -11.194,3.62 -17.548,1.564c-6.352,-2.054 8.553,-37.361 8.553,-37.361Z" style="fill:#3f63ae;fill-rule:nonzero;"/><path d="M169.248,80.889c0,0 -2.565,13.731 -2.711,20.184c-0.04,1.773 1.043,3.374 2.711,3.977l0,-24.161Z" style="fill:#386dab;fill-rule:nonzero;"/><path d="M163.644,149.163l-4.775,-0.63l-30.818,-17.793c-0.988,-0.571 -2.714,-0.499 -3.855,0.16l-21.838,12.603l-2.886,-0.382l0,2.875l0.003,0c-0.02,0.378 0.196,0.743 0.662,1.012l34.927,20.164c0.988,0.572 2.713,0.499 3.854,-0.159l23.783,-13.726c0.642,-0.371 0.961,-0.848 0.943,-1.296l0,-2.828Z" style="fill:#1f3e79;fill-rule:nonzero;"/><path d="M140.487,137.92l-2.189,-1.264l-24.072,0l-11.868,6.847l-2.886,-0.382l0,2.875l0.003,0c-0.02,0.378 0.196,0.743 0.662,1.012l34.927,20.164c0.522,0.302 1.25,0.422 1.989,0.373l3.434,-29.625Z" style="fill:#386dab;fill-rule:nonzero;"/><path d="M100.753,143.29l-1.281,-0.169l0,2.875l0.003,0c-0.02,0.378 0.196,0.743 0.662,1.012l0.616,0.355l0,-4.073Z" style="fill:#5593ce;fill-rule:nonzero;"/><path d="M135.415,167.336c0.937,0.355 2.275,0.278 3.275,-0.204l0,-4.888l-3.275,0l0,5.092Z" style="fill:#26508a;fill-rule:nonzero;"/><path d="M135.064,164.3l-34.927,-20.164c-0.988,-0.57 -0.864,-1.567 0.277,-2.225l23.782,-13.727c1.141,-0.658 2.867,-0.73 3.855,-0.159l34.927,20.164c0.988,0.57 0.864,1.567 -0.277,2.225l-23.783,13.727c-1.141,0.658 -2.866,0.73 -3.854,0.159Z" style="fill:#fff;fill-rule:nonzero;"/><path d="M134.473,161.245l-29.041,-16.768c-0.822,-0.474 -0.719,-1.303 0.23,-1.851l12.744,-7.166c0.949,-0.548 2.384,-0.607 3.205,-0.132l29.041,16.766c0.822,0.475 0.719,1.303 -0.23,1.851l-12.744,7.167c-0.948,0.547 -2.384,0.606 -3.205,0.133Z" style="fill:#d4ebfa;fill-rule:nonzero;"/><path d="M125.547,127.522l-0.361,2.41c-0.309,2.054 -0.255,4.145 0.157,6.18l0.43,2.123c0.243,1.198 1.19,2.127 2.392,2.345c0.94,0.171 1.826,-0.488 1.933,-1.437l0.576,-5.151c0,0 1.318,1.726 1.955,1.726c0.636,0 -0.713,-5.159 -2.151,-8.079c-1.44,-2.92 -4.931,-0.117 -4.931,-0.117Z" style="fill:#fbc1b0;fill-rule:nonzero;"/><path d="M137.386,89.221l-3.747,7.417c-0.887,1.754 -1.408,3.67 -1.534,5.631l-1.627,25.37l-4.931,-0.117l-2.238,-28.491c-0.069,-0.88 -0.027,-1.765 0.128,-2.634l2.555,-14.448l11.394,7.272Z" style="fill:#fbc1b0;fill-rule:nonzero;"/><path d="M133.881,166.238l-2.929,-3.824l-30.797,-17.831c-0.987,-0.571 -1.786,-2.102 -1.785,-3.42l0.028,-25.213l-1.772,-2.312l1.664,-0.964l0.002,0.002c0.318,-0.205 0.742,-0.199 1.208,0.07l34.901,20.208c0.988,0.571 1.787,2.102 1.786,3.419l-0.03,27.46c-0.001,0.742 -0.255,1.256 -0.653,1.464l-1.623,0.941Z" style="fill:#1f3e79;fill-rule:nonzero;"/><path d="M112.583,151.78l-2.187,-1.268l-12.011,-20.861l0.013,-13.701l-1.772,-2.312l1.664,-0.964l0.002,0.002c0.318,-0.205 0.742,-0.199 1.208,0.07l34.901,20.208c0.522,0.301 0.99,0.873 1.316,1.538l-23.134,17.288Z" style="fill:#386dab;fill-rule:nonzero;"/><path d="M97.412,114.663l-0.786,-1.025l1.664,-0.964l0.002,0.002c0.318,-0.205 0.742,-0.199 1.208,0.07l0.614,0.356l-2.702,1.561Z" style="fill:#5593ce;fill-rule:nonzero;"/><path d="M134.719,133.177c0.775,0.634 1.376,1.833 1.458,2.94l-3.411,1.969l-1.634,-2.839l3.587,-2.07Z" style="fill:#26508a;fill-rule:nonzero;"/><path d="M132.739,133.916l-34.901,-20.208c-0.988,-0.571 -1.789,0.034 -1.791,1.351l-0.029,27.459c-0.002,1.317 0.796,2.849 1.784,3.421l34.902,20.207c0.987,0.571 1.789,-0.033 1.791,-1.351l0.029,-27.459c0.001,-1.317 -0.797,-2.848 -1.785,-3.42Z" style="fill:#5593ce;fill-rule:nonzero;"/><path d="M149.9,139.244l-0.559,1.159c-0.644,1.334 -1.656,2.456 -2.917,3.233l-3.467,2.137c-1.078,0.665 -2.444,0.72 -3.539,0.082l-0.118,-0.071c-1.102,-0.691 -1.201,-2.273 -0.295,-3.205l3.623,-3.724c0,0 -2.035,1.559 -2.605,0.932c-0.418,-0.461 1.973,-2.707 3.809,-2.781c1.837,-0.073 3.614,-1.515 3.614,-1.515l2.454,3.753Z" style="fill:#fbc1b0;fill-rule:nonzero;"/><path d="M140.714,55.228c0,0 -13.28,14.451 -18.638,27.708c0,0 4.541,8.182 15.658,11.393c11.117,3.21 2.98,-39.101 2.98,-39.101Z" style="fill:#3f63ae;fill-rule:nonzero;"/><path d="M135.233,93.471l2.153,-20.794l-5.072,19.483c0.904,0.47 1.882,0.909 2.919,1.311Z" style="fill:#386dab;fill-rule:nonzero;"/><path d="M150.661,52.312l-3.568,-0.981c0,0 1.704,2.681 4.191,3.364c2.488,0.683 2.874,-1.422 2.874,-1.422l-3.497,-0.961Z" style="fill:#fff;fill-rule:nonzero;"/><path d="M82.928,2.556c-4.31,0 -7.815,3.505 -7.815,7.815c0,4.31 3.505,7.814 7.815,7.814c4.309,0 7.814,-3.504 7.814,-7.814c0,-4.31 -3.505,-7.815 -7.814,-7.815Zm0,17.811c-5.512,0 -9.996,-4.484 -9.996,-9.996c0,-5.512 4.484,-9.996 9.996,-9.996c5.511,0 9.996,4.484 9.996,9.996c0,5.512 -4.485,9.996 -9.996,9.996Z" style="fill:#d4ebfa;fill-rule:nonzero;"/><path d="M285.014,80.404c-2.706,0 -4.908,2.201 -4.908,4.907c0,2.705 2.202,4.906 4.908,4.906c2.705,0 4.906,-2.201 4.906,-4.906c0,-2.706 -2.201,-4.907 -4.906,-4.907Zm0,11.995c-3.908,0 -7.089,-3.18 -7.089,-7.088c0,-3.908 3.181,-7.089 7.089,-7.089c3.908,0 7.088,3.181 7.088,7.089c0,3.908 -3.18,7.088 -7.088,7.088Z" style="fill:#5593ce;fill-rule:nonzero;"/><path d="M50.707,211.669l2.886,5.871l5.871,-2.885l-2.886,-5.871l-5.871,2.885Zm1.892,8.791l-4.812,-9.785l9.785,-4.811l4.812,9.785l-9.785,4.811Z" style="fill:#5593ce;fill-rule:nonzero;"/><path d="M192.733,59.994l2.886,5.872l5.871,-2.886l-2.885,-5.872l-5.872,2.886Zm1.892,8.792l-4.811,-9.787l9.785,-4.811l4.811,9.786l-9.785,4.812Z" style="fill:#5593ce;fill-rule:nonzero;"/><path d="M41.67,165.284l-4.499,2.212l-2.211,-4.5l4.498,-2.211l2.212,4.499Z" style="fill:#5593ce;fill-rule:nonzero;"/><path d="M215.773,15.687l-26.739,-15.436c-0.529,-0.306 -1.008,-0.318 -1.383,-0.111l0.002,-0.018l-2.593,1.499c0,0 1.148,0.418 1.823,0.666l0,19.471c0,1.584 0.963,3.425 2.151,4.111l25.557,14.755l0,2.285l2.62,-1.509l-0.014,-0.005c0.443,-0.271 0.727,-0.862 0.727,-1.715l0,-19.882c0,-1.585 -0.963,-3.424 -2.151,-4.111Z" style="fill:#5593ce;fill-rule:nonzero;"/><path d="M213.131,42.829l-26.738,-15.438c-1.189,-0.686 -2.152,-2.526 -2.152,-4.11l0,-19.882c0,-1.584 0.963,-2.312 2.152,-1.627l26.738,15.438c1.188,0.686 2.151,2.526 2.151,4.111l0,19.882c0,1.584 -0.963,2.312 -2.151,1.626Z" style="fill:#d4ebfa;fill-rule:nonzero;"/><path d="M195.385,20.539c0,1.151 -0.808,1.618 -1.805,1.042c-0.996,-0.575 -1.804,-1.974 -1.804,-3.125c0,-1.15 0.808,-1.615 1.804,-1.04c0.997,0.575 1.805,1.973 1.805,3.123Z" style="fill:#fff;fill-rule:nonzero;"/><path d="M200.85,23.696c0,1.15 -0.808,1.616 -1.804,1.041c-0.996,-0.575 -1.805,-1.975 -1.805,-3.125c0,-1.151 0.809,-1.616 1.805,-1.041c0.996,0.575 1.804,1.973 1.804,3.125Z" style="fill:#fff;fill-rule:nonzero;"/><path d="M206.315,26.851c0,1.15 -0.807,1.616 -1.804,1.041c-0.996,-0.575 -1.804,-1.974 -1.804,-3.125c0,-1.15 0.808,-1.616 1.804,-1.041c0.997,0.575 1.804,1.975 1.804,3.125Z" style="fill:#fff;fill-rule:nonzero;"/><path d="M30.933,184.841l-26.231,-15.144c-0.519,-0.3 -0.989,-0.312 -1.356,-0.11l0.002,-0.016l-2.545,1.469c0,0 1.127,0.412 1.788,0.654l0,19.102c0,1.555 0.945,3.361 2.111,4.033l25.072,14.476l0,2.241l2.571,-1.48l-0.014,-0.005c0.434,-0.265 0.713,-0.847 0.713,-1.683l0,-19.505c0,-1.553 -0.945,-3.359 -2.111,-4.032Z" style="fill:#5593ce;fill-rule:nonzero;"/><path d="M28.342,211.467l-26.231,-15.144c-1.166,-0.673 -2.111,-2.479 -2.111,-4.033l0,-19.504c0,-1.554 0.945,-2.269 2.111,-1.596l26.231,15.144c1.166,0.673 2.111,2.479 2.111,4.034l0,19.504c0,1.554 -0.945,2.269 -2.111,1.595Z" style="fill:#d4ebfa;fill-rule:nonzero;"/><path d="M10.932,189.602c0,1.128 -0.792,1.586 -1.77,1.021c-0.977,-0.564 -1.77,-1.936 -1.77,-3.065c0,-1.129 0.793,-1.586 1.77,-1.021c0.978,0.563 1.77,1.936 1.77,3.065Z" style="fill:#fff;fill-rule:nonzero;"/><path d="M16.294,192.697c0,1.129 -0.792,1.587 -1.77,1.022c-0.978,-0.564 -1.77,-1.937 -1.77,-3.065c0,-1.129 0.792,-1.587 1.77,-1.023c0.978,0.565 1.77,1.938 1.77,3.066Z" style="fill:#fff;fill-rule:nonzero;"/><path d="M21.655,195.792c0,1.129 -0.792,1.587 -1.769,1.023c-0.978,-0.565 -1.77,-1.938 -1.77,-3.066c0,-1.128 0.792,-1.587 1.77,-1.022c0.977,0.564 1.769,1.937 1.769,3.065Z" style="fill:#fff;fill-rule:nonzero;"/></svg>