<?xml version="1.0" encoding="UTF-8" standalone="no"?><!DOCTYPE svg PUBLIC "-//W3C//DTD SVG 1.1//EN" "http://www.w3.org/Graphics/SVG/1.1/DTD/svg11.dtd"><svg width="100%" height="100%" viewBox="0 0 36 36" version="1.1" xmlns="http://www.w3.org/2000/svg" xmlns:xlink="http://www.w3.org/1999/xlink" xml:space="preserve" xmlns:serif="http://www.serif.com/" style="fill-rule:evenodd;clip-rule:evenodd;stroke-linecap:round;stroke-linejoin:round;stroke-miterlimit:1.41421;"><rect x="3.546" y="1.137" width="28.909" height="33.727" style="fill:#fff;fill-rule:nonzero;"/><path d="M15.48,13.367l0,2.224l-9.414,0l0,-2.224c0,-1.603 1.3,-2.903 2.903,-2.903c0.076,0 0.335,0.218 0.634,0.496c0.658,0.611 1.682,0.611 2.34,0c0.299,-0.278 0.558,-0.496 0.634,-0.496c1.603,0 2.903,1.3 2.903,2.903Z" style="fill:#49bdbe;fill-rule:nonzero;"/><path d="M13.052,7.322c0,1.258 -1.02,2.279 -2.279,2.279c-1.259,0 -2.279,-1.021 -2.279,-2.279c0,-1.259 1.02,-2.279 2.279,-2.279c1.259,0 2.279,1.02 2.279,2.279Z" style="fill:#49bdbe;fill-rule:nonzero;"/><rect x="8.364" y="24.757" width="3.815" height="6.111" style="fill:#2ba5b8;fill-rule:nonzero;"/><rect x="16.093" y="22.29" width="3.814" height="8.578" style="fill:#3d86af;fill-rule:nonzero;"/><rect x="23.821" y="18" width="3.815" height="12.868" style="fill:#366da6;fill-rule:nonzero;"/><path d="M32.454,27.813l0,7.05l-28.908,0l0,-25.089" style="fill:none;stroke:#333;stroke-width:0.59px;"/><path d="M3.546,7.322l0,-6.185l28.908,0l0,22.396" style="fill:none;stroke:#333;stroke-width:0.59px;"/><path d="M15.48,13.367l0,2.224l-9.414,0l0,-2.224c0,-1.603 1.3,-2.903 2.903,-2.903c0.076,0 0.335,0.218 0.634,0.496c0.658,0.611 1.682,0.611 2.34,0c0.299,-0.278 0.558,-0.496 0.634,-0.496c1.603,0 2.903,1.3 2.903,2.903Z" style="fill:none;stroke:#333;stroke-width:0.59px;"/><path d="M13.052,7.322c0,1.258 -1.02,2.279 -2.279,2.279c-1.259,0 -2.279,-1.021 -2.279,-2.279c0,-1.259 1.02,-2.279 2.279,-2.279c1.259,0 2.279,1.02 2.279,2.279Z" style="fill:none;stroke:#333;stroke-width:0.59px;"/><path d="M18,6.16l11.342,0" style="fill:none;stroke:#333;stroke-width:0.59px;"/><path d="M18,9.774l11.342,0" style="fill:none;stroke:#333;stroke-width:0.59px;"/><path d="M18,13.387l11.342,0" style="fill:none;stroke:#333;stroke-width:0.59px;"/><rect x="8.364" y="24.757" width="3.815" height="6.111" style="fill:none;stroke:#333;stroke-width:0.59px;"/><rect x="16.093" y="22.29" width="3.814" height="8.578" style="fill:none;stroke:#333;stroke-width:0.59px;"/><rect x="23.821" y="18" width="3.815" height="12.868" style="fill:none;stroke:#333;stroke-width:0.59px;"/></svg>